<svg width="36" height="37" viewBox="0 0 36 37" fill="none" xmlns="http://www.w3.org/2000/svg">
<rect y="0.5" width="36" height="36" rx="18" fill="#BEF0C6"/>
<path d="M12 10.5H21.2C21.7304 10.5 22.2391 10.7007 22.6142 11.0579C22.9893 11.4151 23.2 11.8996 23.2 12.4048V17.5956C22.2884 17.3143 21.3129 17.2784 20.3812 17.4918C19.4495 17.7052 18.5979 18.1597 17.9203 18.805C17.2427 19.4504 16.7655 20.2614 16.5414 21.1488C16.3173 22.0361 16.355 22.9651 16.6504 23.8333H11.2C11.2 24.0354 11.2843 24.2292 11.4343 24.3721C11.5843 24.515 11.7878 24.5952 12 24.5952H16.9856C17.2145 25.0133 17.5049 25.3982 17.848 25.7381H12C11.4696 25.7381 10.9609 25.5374 10.5858 25.1802C10.2107 24.823 10 24.3385 10 23.8333V12.4048C10 11.8996 10.2107 11.4151 10.5858 11.0579C10.9609 10.7007 11.4696 10.5 12 10.5ZM13.2 12.7857C12.9878 12.7857 12.7843 12.866 12.6343 13.0089C12.4843 13.1518 12.4 13.3455 12.4 13.5476V14.3095C12.4 14.5116 12.4843 14.7054 12.6343 14.8483C12.7843 14.9912 12.9878 15.0714 13.2 15.0714H19.6C19.8122 15.0714 20.0157 14.9912 20.1657 14.8483C20.3157 14.7054 20.4 14.5116 20.4 14.3095V13.5476C20.4 13.3455 20.3157 13.1518 20.1657 13.0089C20.0157 12.866 19.8122 12.7857 19.6 12.7857H13.2ZM26 22.3095C26 21.1981 25.5364 20.1323 24.7113 19.3464C23.8861 18.5605 22.767 18.119 21.6 18.119C20.433 18.119 19.3139 18.5605 18.4887 19.3464C17.6636 20.1323 17.2 21.1981 17.2 22.3095C17.2 23.4209 17.6636 24.4868 18.4887 25.2726C19.3139 26.0585 20.433 26.5 21.6 26.5C22.767 26.5 23.8861 26.0585 24.7113 25.2726C25.5364 24.4868 26 23.4209 26 22.3095ZM21.1312 20.4787L23.376 21.8806C23.4459 21.9232 23.5005 21.9799 23.54 22.0505C23.58 22.1196 23.6 22.1952 23.6 22.2775C23.6001 22.3565 23.5803 22.4343 23.5424 22.5046C23.5058 22.5738 23.4513 22.6331 23.384 22.6768L21.1384 24.1358C21.0995 24.1612 21.0569 24.1809 21.012 24.1945C20.908 24.2262 20.7954 24.2199 20.696 24.177C20.6388 24.1512 20.5866 24.1164 20.5416 24.0741C20.498 24.0293 20.4629 23.9778 20.4376 23.9217C20.4123 23.8646 20.3995 23.8031 20.4 23.7411V20.8779C20.3994 20.7862 20.4268 20.6963 20.479 20.6192C20.5311 20.542 20.6057 20.481 20.6936 20.4436C20.7633 20.4123 20.8404 20.399 20.9172 20.4051C20.994 20.4111 21.0678 20.4362 21.1312 20.4779" fill="#48AC63"/>
</svg>
