<svg width="36" height="37" viewBox="0 0 36 37" fill="none" xmlns="http://www.w3.org/2000/svg">
<rect y="0.5" width="36" height="36" rx="18" fill="#05C524" fill-opacity="0.26"/>
<path d="M17.2074 9.5C15.1059 9.5 13.4724 9.5 12.2009 9.63847C10.9148 9.7797 9.89623 10.0723 9.08358 10.7333C8.24916 11.4127 7.85916 12.2961 7.67505 13.4103C7.5 14.4737 7.5 15.827 7.5 17.5144V17.6834C7.5 19.3283 7.5 20.4665 7.6814 21.3149C7.77935 21.7718 7.93353 22.1687 8.1757 22.5361C8.41514 22.898 8.71988 23.2026 9.08358 23.498C9.65588 23.9642 10.3307 24.2457 11.1279 24.4211V26.8083C11.128 26.9296 11.1594 27.0487 11.219 27.1538C11.2786 27.2588 11.3642 27.3461 11.4674 27.4069C11.5705 27.4676 11.6875 27.4997 11.8067 27.5C11.9259 27.5003 12.043 27.4686 12.1464 27.4083C12.6779 27.0991 13.1487 26.7621 13.5795 26.4446L13.8552 26.2406C14.162 26.0068 14.4753 25.7821 14.7948 25.5667C15.5603 25.0608 16.2913 24.7313 17.25 24.7313H17.2926C19.3941 24.7313 21.0276 24.7313 22.2991 24.5928C23.5852 24.4516 24.6038 24.159 25.4164 23.498C25.7792 23.2026 26.0849 22.898 26.3234 22.5361C26.5665 22.1687 26.7207 21.7718 26.8186 21.3149C27 20.4665 27 19.3283 27 17.6834V17.5144C27 15.827 27 14.4737 26.825 13.4112C26.6408 12.2961 26.2508 11.4127 25.4164 10.7333C24.6038 10.0714 23.5852 9.7797 22.2991 9.63939C21.0276 9.5 19.3941 9.5 17.2926 9.5H17.2074Z" fill="#48AC63"/>
</svg>
