<svg width="36" height="37" viewBox="0 0 36 37" fill="none" xmlns="http://www.w3.org/2000/svg">
<rect y="0.5" width="36" height="36" rx="18" fill="#05C524" fill-opacity="0.26"/>
<path d="M13.8 18.5C15.8311 18.5 17.475 16.8225 17.475 14.75C17.475 12.6775 15.8311 11 13.8 11C11.7689 11 10.125 12.6775 10.125 14.75C10.125 16.8225 11.7689 18.5 13.8 18.5ZM16.32 19.5714H16.0477C15.3652 19.9062 14.6072 20.1071 13.8 20.1071C12.9928 20.1071 12.2381 19.9062 11.5523 19.5714H11.28C9.19312 19.5714 7.5 21.2991 7.5 23.4286V24.3929C7.5 25.2801 8.20547 26 9.075 26H18.525C19.3945 26 20.1 25.2801 20.1 24.3929V23.4286C20.1 21.2991 18.4069 19.5714 16.32 19.5714ZM23.25 18.5C24.9891 18.5 26.4 17.0603 26.4 15.2857C26.4 13.5112 24.9891 12.0714 23.25 12.0714C21.5109 12.0714 20.1 13.5112 20.1 15.2857C20.1 17.0603 21.5109 18.5 23.25 18.5ZM24.825 19.5714H24.7003C24.2442 19.7321 23.7619 19.8393 23.25 19.8393C22.7381 19.8393 22.2558 19.7321 21.7997 19.5714H21.675C21.0056 19.5714 20.3887 19.769 19.8473 20.0871C20.648 20.9676 21.15 22.1362 21.15 23.4286V24.7143C21.15 24.7879 21.1336 24.8583 21.1303 24.9286H26.925C27.7945 24.9286 28.5 24.2087 28.5 23.3214C28.5 21.2489 26.8561 19.5714 24.825 19.5714Z" fill="#48AC63"/>
</svg>
